<?xml version="1.0" encoding="iso-8859-1"?>
<!-- Generator: Adobe Illustrator 18.1.1, SVG Export Plug-In . SVG Version: 6.00 Build 0)  -->
<svg version="1.1" id="Capa_1" xmlns="http://www.w3.org/2000/svg" xmlns:xlink="http://www.w3.org/1999/xlink" x="0px" y="0px"
	 viewBox="0 0 21.971 21.971" style="enable-background:new 0 0 21.971 21.971;" xml:space="preserve">
<g>
	<path style="fill:#010002;" d="M17.872,13.964c-1.272,0-2.394,0.606-3.127,1.534l-6.799-3.477c0.089-0.332,0.153-0.675,0.153-1.036
		c0-0.393-0.076-0.763-0.182-1.123l6.769-3.461c0.729,0.97,1.88,1.604,3.187,1.604c2.214,0,4.005-1.791,4.005-4.003
		c0-2.21-1.791-4.002-4.005-4.002c-2.209,0-4.002,1.792-4.002,4.002c0,0.362,0.064,0.706,0.154,1.039L7.227,8.518
		C6.493,7.589,5.369,6.981,4.095,6.981c-2.212,0-4.002,1.793-4.002,4.004s1.79,4.003,4.002,4.003c1.309,0,2.459-0.636,3.191-1.607
		l6.766,3.461c-0.106,0.359-0.183,0.732-0.183,1.126c0,2.211,1.793,4.003,4.002,4.003c2.214,0,4.005-1.792,4.005-4.003
		C21.877,15.755,20.086,13.964,17.872,13.964z"/>
</g>
<g>
</g>
<g>
</g>
<g>
</g>
<g>
</g>
<g>
</g>
<g>
</g>
<g>
</g>
<g>
</g>
<g>
</g>
<g>
</g>
<g>
</g>
<g>
</g>
<g>
</g>
<g>
</g>
<g>
</g>
</svg>
