<?xml version="1.0" encoding="iso-8859-1"?>
<!-- Generator: Adobe Illustrator 16.0.0, SVG Export Plug-In . SVG Version: 6.00 Build 0)  -->
<!DOCTYPE svg PUBLIC "-//W3C//DTD SVG 1.1//EN" "http://www.w3.org/Graphics/SVG/1.1/DTD/svg11.dtd">
<svg version="1.1" id="Capa_1" xmlns="http://www.w3.org/2000/svg" xmlns:xlink="http://www.w3.org/1999/xlink" x="0px" y="0px"
	 width="45.057px" height="45.057px" viewBox="0 0 45.057 45.057" style="enable-background:new 0 0 45.057 45.057;"
	 xml:space="preserve">
<g>
	<g id="_x35_1_80_">
		<g>
			<path d="M13.323,13.381c6.418,0,12.834,0,19.252,0c1.613,0,1.613-2.5,0-2.5c-6.418,0-12.834,0-19.252,0
				C11.711,10.881,11.711,13.381,13.323,13.381z"/>
			<path d="M32.577,16.798c-6.418,0-12.835,0-19.253,0c-1.612,0-1.612,2.5,0,2.5c6.418,0,12.835,0,19.253,0
				C34.188,19.298,34.188,16.798,32.577,16.798z"/>
			<path d="M32.577,22.281c-6.418,0-12.835,0-19.253,0c-1.612,0-1.612,2.5,0,2.5c6.418,0,12.835,0,19.253,0
				C34.188,24.781,34.188,22.281,32.577,22.281z"/>
			<path d="M32.577,28.197c-6.418,0-12.835,0-19.253,0c-1.612,0-1.612,2.5,0,2.5c6.418,0,12.835,0,19.253,0
				C34.188,30.697,34.188,28.197,32.577,28.197z"/>
			<path d="M32.204,33.781c-6.418,0-12.834,0-19.252,0c-1.612,0-1.612,2.5,0,2.5c6.418,0,12.834,0,19.252,0
				C33.817,36.281,33.817,33.781,32.204,33.781z"/>
			<path d="M33.431,0H5.179v45.057h34.699V6.251L33.431,0z M36.878,42.056H8.179V3h23.707v4.76h4.992V42.056z"/>
		</g>
	</g>
</g>
<g>
</g>
<g>
</g>
<g>
</g>
<g>
</g>
<g>
</g>
<g>
</g>
<g>
</g>
<g>
</g>
<g>
</g>
<g>
</g>
<g>
</g>
<g>
</g>
<g>
</g>
<g>
</g>
<g>
</g>
</svg>
